<mxfile host="65bd71144e">
    <diagram id="bfQwsL_KZhJFMMNnV3Wi" name="_sozai">
        <mxGraphModel dx="673" dy="602" grid="1" gridSize="10" guides="1" tooltips="1" connect="1" arrows="1" fold="1" page="1" pageScale="1" pageWidth="850" pageHeight="1100" math="0" shadow="0">
            <root>
                <mxCell id="0"/>
                <mxCell id="1" parent="0"/>
                <mxCell id="4" value="text" style="whiteSpace=wrap;html=1;strokeColor=#333333;strokeWidth=1;fillColor=default;align=left;verticalAlign=top;spacing=4;" parent="1" vertex="1">
                    <mxGeometry x="50" y="70" width="70" height="40" as="geometry"/>
                </mxCell>
                <mxCell id="5" value="&lt;span style=&quot;color: rgb(0, 0, 0);&quot;&gt;text&lt;/span&gt;" style="whiteSpace=wrap;html=1;strokeColor=#666666;strokeWidth=1;fillColor=#f5f5f5;fontColor=#333333;align=left;verticalAlign=top;spacing=4;" parent="1" vertex="1">
                    <mxGeometry x="50" y="130" width="70" height="40" as="geometry"/>
                </mxCell>
                <mxCell id="6" value="text" style="whiteSpace=wrap;html=1;strokeColor=#82b366;strokeWidth=1;fillColor=#d5e8d4;align=left;verticalAlign=top;spacing=4;" parent="1" vertex="1">
                    <mxGeometry x="50" y="190" width="70" height="40" as="geometry"/>
                </mxCell>
                <mxCell id="7" value="text" style="whiteSpace=wrap;html=1;strokeColor=#6c8ebf;strokeWidth=1;fillColor=#dae8fc;align=left;verticalAlign=top;spacing=4;" parent="1" vertex="1">
                    <mxGeometry x="50" y="250" width="70" height="40" as="geometry"/>
                </mxCell>
                <mxCell id="NDdNgzTuyGcs6VwOKB9a-7" value="nomal" style="whiteSpace=wrap;html=1;strokeColor=#333333;strokeWidth=1;fillColor=default;" parent="1" vertex="1">
                    <mxGeometry x="170" y="70" width="120" height="60" as="geometry"/>
                </mxCell>
            </root>
        </mxGraphModel>
    </diagram>
    <diagram id="Vqgj3_It6Plpg_GfQrIm" name="Page-3">
        <mxGraphModel dx="673" dy="602" grid="1" gridSize="10" guides="1" tooltips="1" connect="1" arrows="1" fold="1" page="1" pageScale="1" pageWidth="850" pageHeight="1100" math="0" shadow="0">
            <root>
                <mxCell id="0"/>
                <mxCell id="1" parent="0"/>
            </root>
        </mxGraphModel>
    </diagram>
    <diagram id="URblgGNgyUjkba_guebb" name="Page-2">
        <mxGraphModel dx="673" dy="602" grid="1" gridSize="10" guides="1" tooltips="1" connect="1" arrows="1" fold="1" page="1" pageScale="1" pageWidth="850" pageHeight="1100" math="0" shadow="0">
            <root>
                <mxCell id="0"/>
                <mxCell id="1" parent="0"/>
                <mxCell id="g1UhHX0fwd2p-64Vs4ye-1" value="nomal" style="whiteSpace=wrap;html=1;strokeColor=#333333;strokeWidth=1;fillColor=default;" parent="1" vertex="1">
                    <mxGeometry x="170" y="70" width="120" height="60" as="geometry"/>
                </mxCell>
            </root>
        </mxGraphModel>
    </diagram>
</mxfile>